<svg width="1200" height="900" viewBox="0 0 1200 900" fill="none" xmlns="http://www.w3.org/2000/svg">
  <rect width="1200" height="900" fill="#F8ECD8"/>
  <path d="M0 0h1200v900H0z" fill="url(#wash)"/>
  <path d="M0 680c152-70 273-76 399-32 112 39 193 104 340 54 174-59 313-42 461 34v164H0V680z" fill="#E8CDB0"/>
  <rect x="154" y="145" width="842" height="572" rx="44" fill="#9A704B" opacity=".22"/>
  <rect x="190" y="120" width="820" height="572" rx="48" fill="#FFF9ED" filter="url(#shadow)"/>
  <path d="M250 209h700" stroke="#E5D3B4" stroke-width="12" stroke-linecap="round"/>
  <path d="M250 615h700" stroke="#E5D3B4" stroke-width="12" stroke-linecap="round"/>
  <g filter="url(#photoShadow)">
    <rect x="268" y="260" width="250" height="270" rx="20" transform="rotate(-7 268 260)" fill="#FFFDF8"/>
    <rect x="294" y="286" width="198" height="156" rx="14" transform="rotate(-7 294 286)" fill="#CFE4E8"/>
    <circle cx="373" cy="360" r="45" fill="#E1A477"/>
    <path d="M308 429c49-66 99-78 151-28 26 26 51 28 83 3l8 63-221 27-21-65z" fill="#86A66F"/>
  </g>
  <g filter="url(#photoShadow)">
    <rect x="508" y="235" width="244" height="294" rx="22" transform="rotate(4 508 235)" fill="#FFFDF8"/>
    <rect x="531" y="266" width="195" height="170" rx="16" transform="rotate(4 531 266)" fill="#F3D0B4"/>
    <circle cx="618" cy="344" r="52" fill="#7B7048"/>
    <path d="M552 429c52-80 129-88 201 3l-10 70-201-15 10-58z" fill="#C76D49"/>
  </g>
  <g filter="url(#photoShadow)">
    <rect x="744" y="299" width="232" height="248" rx="20" transform="rotate(8 744 299)" fill="#FFFDF8"/>
    <rect x="766" y="325" width="184" height="136" rx="14" transform="rotate(8 766 325)" fill="#D7E6F2"/>
    <path d="M781 442c38-56 84-58 129-7 24 28 45 31 69 12l-11 60-205-29 18-36z" fill="#EDC66B"/>
  </g>
  <circle cx="244" cy="210" r="18" fill="#C76D49" opacity=".75"/>
  <circle cx="946" cy="210" r="18" fill="#C76D49" opacity=".75"/>
  <path d="M420 636c82 29 179 33 286 0" stroke="#CFA86A" stroke-width="10" stroke-linecap="round" opacity=".6"/>
  <g transform="translate(858 574) rotate(-10)">
    <rect width="118" height="86" rx="18" fill="#7B7048"/>
    <rect x="18" y="26" width="82" height="44" rx="12" fill="#FFF9ED"/>
    <circle cx="59" cy="48" r="18" fill="#C76D49"/>
    <rect x="20" y="10" width="36" height="16" rx="8" fill="#C76D49"/>
  </g>
  <defs>
    <filter id="shadow" x="142" y="82" width="916" height="668" filterUnits="userSpaceOnUse" color-interpolation-filters="sRGB">
      <feDropShadow dx="0" dy="22" stdDeviation="22" flood-color="#6B4D2F" flood-opacity=".16"/>
    </filter>
    <filter id="photoShadow" x="220" y="190" width="810" height="410" filterUnits="userSpaceOnUse" color-interpolation-filters="sRGB">
      <feDropShadow dx="0" dy="14" stdDeviation="12" flood-color="#6B4D2F" flood-opacity=".14"/>
    </filter>
    <radialGradient id="wash" cx="0" cy="0" r="1" gradientUnits="userSpaceOnUse" gradientTransform="translate(730 220) rotate(125) scale(840 740)">
      <stop stop-color="#FFFDF6"/>
      <stop offset=".62" stop-color="#F3D2AA" stop-opacity=".44"/>
      <stop offset="1" stop-color="#E9B987" stop-opacity=".2"/>
    </radialGradient>
  </defs>
</svg>
