<svg width="1200" height="900" viewBox="0 0 1200 900" fill="none" xmlns="http://www.w3.org/2000/svg">
  <rect width="1200" height="900" fill="#F8EFD9"/>
  <path d="M0 0h1200v900H0z" fill="url(#paper)"/>
  <circle cx="950" cy="155" r="96" fill="#F6C96F" opacity=".75"/>
  <path d="M0 590c126-84 223-117 350-89 121 27 184 119 321 100 126-17 178-116 316-110 83 4 151 43 213 92v317H0V590z" fill="#90B16D"/>
  <path d="M0 653c164-94 308-112 437-55 115 51 209 119 349 63 163-66 280-50 414 27v212H0V653z" fill="#5F8C65"/>
  <path d="M0 715c162-51 283-47 418 21 140 70 260 66 401 0 141-65 255-59 381 11v153H0V715z" fill="#E8C381"/>
  <path d="M270 472l137-178 146 178H270z" fill="#A7C4C6"/>
  <path d="M407 294l70 178H270l89-115 27 38 21-101z" fill="#E9F2EE"/>
  <path d="M520 488l166-231 204 231H520z" fill="#93ADB9"/>
  <path d="M686 257l82 231H520l98-136 36 51 32-146z" fill="#F5FAF6"/>
  <path d="M171 680c84-28 176-37 287-3" stroke="#3F6F55" stroke-width="10" stroke-linecap="round" opacity=".35"/>
  <path d="M696 688c86-45 186-48 303-8" stroke="#3F6F55" stroke-width="10" stroke-linecap="round" opacity=".35"/>
  <g filter="url(#shadow)">
    <rect x="124" y="126" width="258" height="330" rx="32" transform="rotate(-6 124 126)" fill="#FFF9EA"/>
    <rect x="158" y="173" width="190" height="130" rx="20" transform="rotate(-6 158 173)" fill="#B9D8E7"/>
    <path d="M168 286c36-54 72-75 111-43 32 26 45 14 80-16l8 73-194 20-5-34z" fill="#7BA66A"/>
    <path d="M167 357l154-16" stroke="#CFA86A" stroke-width="12" stroke-linecap="round"/>
    <path d="M171 390l103-11" stroke="#DCC697" stroke-width="10" stroke-linecap="round"/>
  </g>
  <path d="M774 230c93 46 165 112 218 200" stroke="#C76D49" stroke-width="14" stroke-linecap="round" stroke-dasharray="2 36"/>
  <path d="M998 443l-62-18 46-44 16 62z" fill="#C76D49"/>
  <g filter="url(#shadow)">
    <rect x="820" y="512" width="210" height="140" rx="28" fill="#FFF6E3"/>
    <path d="M872 595c52-77 107-76 166 2" stroke="#C76D49" stroke-width="14" stroke-linecap="round"/>
    <circle cx="873" cy="579" r="18" fill="#C76D49"/>
    <circle cx="983" cy="579" r="18" fill="#C76D49"/>
    <path d="M895 624h78" stroke="#7B7048" stroke-width="10" stroke-linecap="round"/>
  </g>
  <defs>
    <filter id="shadow" x="60" y="60" width="1040" height="660" filterUnits="userSpaceOnUse" color-interpolation-filters="sRGB">
      <feDropShadow dx="0" dy="20" stdDeviation="18" flood-color="#6B4D2F" flood-opacity=".16"/>
    </filter>
    <radialGradient id="paper" cx="0" cy="0" r="1" gradientUnits="userSpaceOnUse" gradientTransform="translate(320 170) rotate(38) scale(980 700)">
      <stop stop-color="#FFF9EA"/>
      <stop offset=".55" stop-color="#F7E3BD" stop-opacity=".42"/>
      <stop offset="1" stop-color="#F4D39B" stop-opacity=".18"/>
    </radialGradient>
  </defs>
</svg>
