<svg width="1200" height="900" viewBox="0 0 1200 900" fill="none" xmlns="http://www.w3.org/2000/svg">
  <rect width="1200" height="900" fill="#FFF0E8"/>
  <path d="M0 0h1200v900H0z" fill="url(#glow)"/>
  <path d="M0 686c143-64 265-67 389-24 116 40 214 104 366 52 168-58 296-35 445 45v141H0V686z" fill="#F2C3B9"/>
  <g opacity=".5">
    <circle cx="174" cy="170" r="24" fill="#F6B6C2"/>
    <circle cx="1002" cy="155" r="34" fill="#F6C96F"/>
    <circle cx="1042" cy="360" r="18" fill="#8EA36A"/>
    <circle cx="214" cy="398" r="16" fill="#C76D49"/>
    <circle cx="968" cy="640" r="20" fill="#F6B6C2"/>
  </g>
  <g filter="url(#shadow)">
    <rect x="284" y="190" width="620" height="430" rx="58" fill="#FFF9ED"/>
    <rect x="326" y="232" width="536" height="302" rx="42" fill="#F8D7D0"/>
    <path d="M326 470c92-74 172-88 254-34 82 55 155 49 234-18 18-15 34-27 48-37v153H326v-64z" fill="#E8AA99"/>
    <circle cx="508" cy="354" r="64" fill="#7B7048"/>
    <circle cx="690" cy="364" r="58" fill="#C76D49"/>
    <path d="M428 470c62-80 128-88 197-22 30 29 56 32 96 4 42-29 85-17 130 36v46H428v-64z" fill="#FFF2E6"/>
    <rect x="408" y="562" width="382" height="62" rx="31" fill="#7B7048" opacity=".18"/>
  </g>
  <g filter="url(#cakeShadow)">
    <path d="M389 653h420v88c0 28-23 51-51 51H440c-28 0-51-23-51-51v-88z" fill="#F6C96F"/>
    <path d="M420 604h360c26 0 47 21 47 47v30H373v-30c0-26 21-47 47-47z" fill="#FFF9ED"/>
    <path d="M373 670c39 30 78 30 116 0 38-29 77-29 115 0 39 30 77 30 116 0 36-28 72-29 107-4v15H373v-11z" fill="#F6B6C2"/>
    <rect x="496" y="512" width="26" height="92" rx="13" fill="#C76D49"/>
    <rect x="588" y="494" width="26" height="110" rx="13" fill="#C76D49"/>
    <rect x="680" y="512" width="26" height="92" rx="13" fill="#C76D49"/>
    <path d="M509 474c28 31 22 58 0 71-22-13-28-40 0-71z" fill="#F6C96F"/>
    <path d="M601 456c28 31 22 58 0 71-22-13-28-40 0-71z" fill="#F6C96F"/>
    <path d="M693 474c28 31 22 58 0 71-22-13-28-40 0-71z" fill="#F6C96F"/>
  </g>
  <path d="M248 560c-5-72 28-131 98-178" stroke="#C76D49" stroke-width="12" stroke-linecap="round" stroke-dasharray="4 28" opacity=".55"/>
  <path d="M956 548c16-79-13-145-88-198" stroke="#C76D49" stroke-width="12" stroke-linecap="round" stroke-dasharray="4 28" opacity=".55"/>
  <g transform="translate(190 590) rotate(-12)">
    <rect width="138" height="94" rx="22" fill="#FFF9ED"/>
    <path d="M40 34l58 25-58 25V34z" fill="#C76D49"/>
  </g>
  <defs>
    <filter id="shadow" x="234" y="148" width="720" height="536" filterUnits="userSpaceOnUse" color-interpolation-filters="sRGB">
      <feDropShadow dx="0" dy="20" stdDeviation="20" flood-color="#7C3144" flood-opacity=".16"/>
    </filter>
    <filter id="cakeShadow" x="340" y="440" width="520" height="390" filterUnits="userSpaceOnUse" color-interpolation-filters="sRGB">
      <feDropShadow dx="0" dy="20" stdDeviation="18" flood-color="#7C3144" flood-opacity=".18"/>
    </filter>
    <radialGradient id="glow" cx="0" cy="0" r="1" gradientUnits="userSpaceOnUse" gradientTransform="translate(610 270) rotate(90) scale(690 850)">
      <stop stop-color="#FFFDF4"/>
      <stop offset=".55" stop-color="#F8C9D2" stop-opacity=".5"/>
      <stop offset="1" stop-color="#F7A7A7" stop-opacity=".2"/>
    </radialGradient>
  </defs>
</svg>
